<?xml version="1.0" standalone="no"?>
<!DOCTYPE svg PUBLIC "-//W3C//DTD SVG 20010904//EN"
 "http://www.w3.org/TR/2001/REC-SVG-20010904/DTD/svg10.dtd">
<svg version="1.0" xmlns="http://www.w3.org/2000/svg"
 width="512.000000pt" height="512.000000pt" viewBox="0 0 512.000000 512.000000"
 preserveAspectRatio="xMidYMid meet">
<metadata>
Created by potrace 1.11, written by Peter Selinger 2001-2013
</metadata>
<g transform="translate(0.000000,512.000000) scale(0.100000,-0.100000)"
fill="#000000" stroke="none">
<path d="M1900 4704 c-56 -18 -109 -50 -125 -75 -11 -16 -23 -29 -27 -29 -5 0
-8 -9 -8 -19 0 -11 -4 -22 -10 -26 -14 -8 -6 -140 9 -159 8 -9 10 -16 5 -16
-12 0 256 -254 372 -354 19 -16 34 -34 34 -40 0 -7 -190 -199 -421 -427 -232
-228 -495 -486 -584 -574 -90 -88 -341 -335 -560 -550 -517 -507 -521 -511
-541 -554 -22 -45 -25 -57 -25 -103 1 -39 30 -118 43 -118 5 0 8 -5 8 -11 0
-12 30 -44 30 -32 0 4 4 3 8 -3 15 -23 77 -46 133 -50 73 -5 136 18 190 70 21
21 39 36 39 32 0 -3 24 21 53 53 28 33 55 60 59 60 3 1 30 26 60 57 63 66 391
392 678 674 1371 1347 1401 1377 1399 1387 -1 4 0 10 1 13 10 27 14 97 7 130
-8 37 -40 80 -106 141 -39 37 -71 69 -71 72 0 12 1660 4 1669 -7 5 -6 11 -110
15 -231 4 -121 8 -281 11 -355 2 -74 7 -209 9 -300 3 -91 6 -165 7 -165 0 0 3
-61 5 -135 2 -74 6 -195 8 -268 l4 -132 -26 20 c-15 10 -52 42 -82 70 -55 51
-121 80 -181 80 -38 0 -120 -29 -140 -49 -14 -14 -457 -448 -1021 -1002 -360
-353 -924 -909 -1098 -1081 -160 -157 -216 -228 -212 -263 1 -5 3 -33 5 -61
10 -127 151 -221 288 -191 48 10 91 38 154 101 35 33 241 237 460 451 218 215
470 462 560 550 828 815 998 981 1010 987 8 5 35 -13 76 -53 35 -33 89 -82
119 -109 30 -26 89 -80 130 -119 83 -78 117 -99 182 -107 24 -3 45 -6 48 -7 3
0 25 5 50 12 60 17 114 58 142 106 22 38 23 48 21 245 0 113 -4 284 -7 380 -4
96 -9 236 -11 310 -2 74 -4 135 -5 135 -2 0 -12 384 -14 527 0 82 -3 148 -6
148 -3 0 -6 33 -6 73 -1 41 -5 166 -8 278 -4 112 -9 257 -12 321 -2 72 -9 131
-18 153 -22 52 -100 121 -151 134 -43 11 -2592 15 -2625 5z"/>
<path d="M2538 3290 c-20 -4 -47 -14 -60 -22 -12 -9 -122 -114 -243 -233 -121
-119 -399 -393 -618 -608 -845 -830 -794 -779 -806 -822 -31 -118 56 -225 184
-225 39 0 91 15 109 32 19 18 823 809 1090 1072 120 119 219 216 220 216 1 0
79 77 174 171 129 129 172 178 174 198 0 14 2 40 3 56 2 38 -12 73 -44 108
-47 53 -107 71 -183 57z"/>
<path d="M3004 2818 c-21 -10 -103 -83 -183 -162 -80 -80 -225 -222 -321 -316
-96 -94 -304 -299 -463 -456 -158 -156 -292 -284 -297 -284 -6 0 -10 -4 -10
-10 0 -5 -41 -49 -90 -97 -50 -48 -185 -181 -300 -296 -116 -114 -210 -206
-210 -205 0 11 -568 -562 -573 -577 -21 -69 -13 -115 30 -173 44 -60 123 -84
203 -62 45 12 11 -20 605 565 220 217 488 480 595 585 236 232 954 938 1127
1108 120 118 153 165 153 215 0 35 -28 98 -58 129 -47 50 -144 67 -208 36z"/>
</g>
</svg>
