<svg version="1" xmlns="http://www.w3.org/2000/svg" width="682.667" height="682.667" viewBox="0 0 512.000000 512.000000"><path d="M73.3 72.8c-2.2.2-3.4 1-3.9 2.4-.8 2.7-.9 71.6-.1 72.4.4.4 14.3.7 30.9.7 22.8.1 30.6.4 31.6 1.3 1.4 1.5 1.6 4.6.2 6-.5.5-1.1 2.1-1.4 3.4-.2 1.4-.5 2.6-.7 2.7-.1.2-.3.7-.4 1.3-.1.5-.3 1.1-.5 1.2-.2.4-.7 2.4-1.5 6.3-.3 1.6-.9 3.2-1.3 3.5-.4.3-.9 1.8-1.1 3.5-.1 1.6-.6 3.2-1 3.5-.3.3-.8 1.6-.9 3-.2 1.4-.8 2.6-1.2 2.8-.4.2-.6 1.2-.3 2.2.3 1.1.1 2-.4 2s-1 .6-1.1 1.2c-.2 2.3-.7 4.3-1.5 5.5-.5.7-.6 1.3-.2 1.3.3 0 .1.9-.5 2.1-.6 1.1-1.3 2.8-1.5 3.8-.2 1-1.3 5.1-2.6 9.2-1.2 4.1-2.3 7.9-2.5 8.5-.4 2.4-4.9 15.9-5.4 16.4-.3.3-.5.9-.5 1.5-.1 2.9-1.7 8.5-2.5 8.5-.5 0-.7.7-.4 1.5.4.8.2 1.5-.3 1.5s-1 1-1 2.2c-.3 3.8-2.6 11.8-3.4 11.8-.5 0-.6.7-.3 1.5.4.8.2 1.5-.4 1.5-.5 0-.9.6-.8 1.2.2 2.1-2.7 11.8-3.6 11.8-.4 0-.5.7-.2 1.5.4.8.2 2.1-.4 2.8-.5.6-1.5 3.6-2.3 6.4-.7 2.9-1.5 5.3-1.8 5.3-.3 0-.7 1.1-.7 2.5-.1 1.4-.5 3.3-1 4.3-.4.9-.8 1.9-.8 2.2-.2 1.1-2.9 9.8-4.3 13.7-.8 2.3-1.6 5.4-1.9 6.9-.3 1.6-.8 3.1-1.2 3.4-.4.3-.9 1.8-1.1 3.5-.1 1.6-.7 3.8-1.3 4.8-.5 1-1.2 2.8-1.4 4-.9 3.8-1.2 5.2-1.4 5.2-.1 0-.4 1.1-.6 2.5-.3 1.3-.9 2.9-1.4 3.4-.4.4-.6 1.5-.3 2.2.3.8 0 1.4-.7 1.4-.6 0-.8.5-.5 1 .3.5.3 1-.2 1-.4 0-.9 1.4-1 3.2-.1 1.7-.6 3.4-1.1 3.7-.4.3-.9 1.5-.9 2.6-.1 1.1-.8 4-1.6 6.5s-1.8 6-2.2 7.8c-.4 1.7-1 3.2-1.3 3.2-1.3 0-.7 54.9.6 56.2.9.9 23.5 1.2 88.7 1.2 85.9.1 87.5.1 88.1-1.8 1.2-3.6.8-71.6-.4-72.8-.7-.7-12.4-1.1-34.8-1.2l-33.7-.1-.3-2.3c-.2-1.2 0-2.2.4-2.2s.9-1.2 1-2.7c.1-1.5.5-2.9 1-3.2.4-.3.9-1.7 1.1-3.1.1-1.4.6-2.7 1-3 .3-.3.6-1 .7-1.5.2-2.8 1.7-7.5 2.4-7.5.5 0 .6-.8.3-1.9-.3-1 0-2.2.6-2.5.6-.4 1.1-1.7 1.1-3 0-1.2.3-2.6.8-3 .4-.4.7-1.1.8-1.4 0-.4.4-1.6.8-2.7s1.2-3.1 1.6-4.5c.4-1.4 1.2-3.4 1.6-4.5.9-2.4.8-2.2 1.7-6.7.5-2.1 1.2-3.8 1.7-3.8.4 0 .7-.8.5-1.8-.1-.9.2-2.6.8-3.7.6-1.1 1-2.4.9-2.8-.1-.4.3-1.7.9-2.8.6-1.2 1.3-3.3 1.5-4.7.3-1.5.8-2.9 1.2-3.2.4-.3.8-1.4 1-2.5.2-1.1.6-2.7.9-3.5.4-.8.7-1.7.8-2 .1-.3.6-2 1-3.8.4-1.7 1.2-3.2 1.7-3.2s.6-.4.3-1c-.5-.8.8-5.5 4.3-15 .3-.8.7-2.4.9-3.5.2-1.1 1.1-3.6 2-5.5.9-1.9 1.6-4.3 1.5-5.3 0-.9.2-1.7.6-1.7.4 0 .9-1.2 1-2.8.1-1.5.7-2.9 1.2-3 .6-.2.8-.8.5-1.3-.3-.4.1-2.2 1-3.9.8-1.6 1.3-3 1-3-.3 0-.1-.9.5-2.1.7-1.1 1.4-3.1 1.6-4.5.2-1.3.8-3.4 1.3-4.6.5-1.3.9-2.6 1-3 .1-.5 1.2-3.7 2.6-7.3 1.3-3.6 2.4-6.6 2.3-6.8-.4-.6 2.7-9.7 3.3-9.7.4 0 .6-.6.5-1.3-.1-1.3 4-15 5.5-18.2.5-1.1 1.1-2.9 1.3-4 .2-1.1 1.6-5.6 3.1-10l2.8-8-.1-37.8c0-20.8-.2-38.1-.6-38.4-.6-.6-159.4-1.1-165.3-.5zM247.9 73.6c-1.1.5-1.6 1.3-1.3 1.7.4.4.3.7-.2.7-1.1 0-1 65.1.1 69.2.4 1.6 1.5 2.8 2.4 2.9.9 0 12.8.1 26.6.1 17.6.1 25.3.5 26.1 1.3.9.8 1.2 37.2 1.3 145.6 0 79.4.2 145.1.4 145.9.1.8.5 1.9.9 2.5.7 1.1 91.9 1.3 95.3.2 2-.7 2-1.6 2-147.4 0-116.9.3-146.7 1.3-146.6.6.2 1.2-.1 1.2-.5 0-.5 11.9-.9 26.5-.9s26.8-.3 27.2-.6c.8-.8.8-73.5 0-74.4-1.2-1.1-207.7-.9-209.8.3z"/></svg>